# AST/ASF file generated using VICON BodyLanguage
# -----------------------------------------------
:version 1.10
:name VICON
:units
  mass 1.0
  length 0.45
  angle deg
:documentation
   .ast/.asf automatically generated from VICON data using
   VICON BodyBuilder and BodyLanguage model FoxedUp or BRILLIANT.MOD
:root
   order TX TY TZ RX RY RZ
   axis XYZ
   position 0 0 0  
   orientation 0 0 0 
:bonedata
  begin
     id 1 
     name lhipjoint
     direction 0.693937 -0.600361 0.397515 
     length 2.37164 
     axis 0 0 0  XYZ
  end
  begin
     id 2 
     name lfemur
     direction 0.34202 -0.939693 0  
     length 6.18497  
     axis 0 0 20  XYZ
    dof rx ry rz
    limits (-160.0 20.0)
           (-70.0 70.0)
           (-60.0 70.0)
  end
  begin
     id 3 
     name ltibia
     direction 0.34202 -0.939693 0   
     length 6.91601   
     axis 0 0 20   XYZ
    dof rx
    limits (-10.0 170.0)
  end
  begin
     id 4 
     name lfoot
     direction 0.0978718 -0.2689 0.958182   
     length 1.81453   
     axis -90 7.62852e-016 20   XYZ
    dof rx rz
    limits (-45.0 90.0)
           (-70.0 20.0)
  end
  begin
     id 5 
     name ltoes
     direction 1.53569e-011 -4.21951e-011 1   
     length 0.912052   
     axis -90 7.62852e-016 20   XYZ
    dof rx
    limits (-90.0 20.0)
  end
  begin
     id 6 
     name rhipjoint
     direction -0.643996 -0.637876 0.422354   
     length 2.23216  
     axis 0 0 0  XYZ 
  end
  begin
     id 7 
     name rfemur
     direction -0.34202 -0.939693 0   
     length 6.15404   
     axis 0 0 -20   XYZ
    dof rx ry rz
    limits (-160.0 20.0)
           (-70.0 70.0)
           (-70.0 60.0)
  end
  begin
     id 8 
     name rtibia
     direction -0.34202 -0.939693 0   
     length 6.86744   
     axis 0 0 -20   XYZ
    dof rx
    limits (-10.0 170.0)
 end
 begin
     id 9 
     name rfoot
     direction -0.118701 -0.326127 0.937844   
     length 1.9243  
     axis -90 -7.62852e-016 -20   XYZ
    dof rx rz
    limits (-45.0 90.0)
           (-20.0 70.0)
  end
  begin
     id 10 
     name rtoes
     direction -1.5356e-011 -4.2181e-011 1   
     length 0.958865   
     axis -90 -7.62852e-016 -20   XYZ
    dof rx
    limits (-90.0 20.0)
  end
  begin
     id 11 
     name lowerback
     direction 0.0310826 0.968686 -0.246334   
     length 2.00021   
     axis 0 0 0   XYZ
    dof rx ry rz
    limits (-20.0 45.0)
           (-30.0 30.0)
           (-30.0 30.0)
  end
  begin
     id 12 
     name upperback
     direction -0.0152834 0.999474 -0.0286152   
     length 2.03728   
     axis 0 0 0   XYZ
    dof rx ry rz
    limits (-20.0 45.0)
           (-30.0 30.0)
           (-30.0 30.0)
  end
  begin
     id 13 
     name thorax
     direction -0.0323701 0.996236 0.0804149   
     length 2.16   
     axis 0 0 0   XYZ
    dof rx ry rz
    limits (-20.0 45.0)
           (-30.0 30.0)
           (-30.0 30.0)
  end
  begin
     id 14 
     name lowerneck
     direction 0.0307935 0.982251 0.185027   
     length 1.43558   
     axis 0 0 0   XYZ
    dof rx ry rz
    limits (-20.0 45.0)
           (-30.0 30.0)
           (-30.0 30.0)
  end
  begin
     id 15 
     name upperneck
     direction -0.0927153 0.994775 0.0427454   
     length 1.44603   
     axis 0 0 0   XYZ
    dof rx ry rz
    limits (-20.0 45.0)
           (-30.0 30.0)
           (-30.0 30.0)
  end
  begin
     id 16
     name head
     direction -0.0341265 0.999406 -0.00472033  
     length 1.45931  
     axis 0 0 0   XYZ
    dof rx ry rz
    limits (-20.0 45.0)
           (-30.0 30.0)
           (-30.0 30.0)
  end
  begin
     id 17 
     name lclavicle
     direction 0.820755 0.555306 -0.134151  
     length 2.66075  
     axis 0 0 0   XYZ
    dof ry rz
    limits (-20.0 10.0)
           (0.0 20.0)
  end
  begin
     id 18 
     name lhumerus
     direction 1 -4.48971e-011 5.24853e-027   
     length 5.0546   
     axis -180 -30 -90   XYZ
    dof rx ry rz
    limits (-60.0 90.0)
           (-90.0 90.0)
           (-90.0 90.0)
  end
  begin
     id 19
     name lradius
     direction 1 -4.48971e-011 2.76575e-028   
     length 3.39013   
     axis -180 -30 -90   XYZ
    dof rx
    limits (-10.0 170.0)
  end
  begin
     id 20
     name lwrist
     direction 1 -4.48939e-011 -2.27826e-027   
     length 1.69507   
     axis 2.17013e-015 90 90   XYZ
    dof ry
    limits (-180.0 0.0)
 end
  begin
     id 21 
     name lhand
     direction 1 -4.49009e-011 -4.55652e-027   
     length 0.572425   
     axis 2.90745e-015 90 90   XYZ
    dof rx rz
    limits (-90.0 90.0)
           (-45.0 45.0)
  end
  begin
     id 22 
     name lfingers
     direction 1 -4.48955e-011 -9.11303e-027   
     length 0.461504   
     axis 5.81489e-015 90 90   XYZ
    dof rx
    limits (0.0 90.0)
  end
  begin
     id 23
     name lthumb
     direction 0.707107 -6.34929e-011 0.707107   
     length 0.66263   
     axis -90 45 2.85299e-015   XYZ
    dof rx rz
    limits (-45.0 45.0)
           (-45.0 45.0)
  end
  begin
     id 24 
     name rclavicle
     direction -0.754477 0.632921 -0.173712   
     length 2.73081  
     axis 0 0 0   XYZ 
    dof ry rz
    limits (-10.0 20.0)
           (-20.0 0.0)
  end
  begin
     id 25 
     name rhumerus
     direction -1 -4.48969e-011 5.1496e-027  
     length 5.0701   
     axis -180 30 90   XYZ
    dof rx ry rz
    limits (-90.0 60.0)
           (-90.0 90.0)
           (-90.0 90.0)
  end
  begin
     id 26 
     name rradius
     direction -1 -4.48967e-011 -7.15624e-028   
     length 3.14957   
     axis -180 30 90   XYZ
    dof rx
    limits (-10.0 170.0)
  end
  begin
     id 27 
     name rwrist
     direction -1 -4.48938e-011 -2.27826e-027   
     length 1.57479   
     axis 2.17013e-015 -90 -90   XYZ
    dof ry
    limits (-180.0 0.0)
  end
  begin
     id 28
     name rhand
     direction -1 -4.49008e-011 -4.55652e-027   
     length 0.718191   
     axis 2.90745e-015 -90 -90   XYZ
    dof rx rz
    limits (-90.0 90.0)
           (-45.0 45.0)
  end
  begin
     id 29
     name rfingers
     direction -1 -4.48953e-011 -9.11303e-027   
     length 0.579024   
     axis 5.81489e-015 -90 -90   XYZ
    dof rx
    limits (0.0 90.0)
  end
  begin
     id 30
     name rthumb
     direction -0.707107 -6.34937e-011 0.707107   
     length 0.831366   
     axis -90 -45 -2.85299e-015   XYZ
    dof rx rz
    limits (-45.0 45.0)
           (-45.0 45.0)
  end
:hierarchy
  begin
    root lhipjoint rhipjoint lowerback
    lhipjoint lfemur
    lfemur ltibia
    ltibia lfoot
    lfoot ltoes
    rhipjoint rfemur
    rfemur rtibia
    rtibia rfoot
    rfoot rtoes
    lowerback upperback
    upperback thorax
    thorax lowerneck lclavicle rclavicle
    lowerneck upperneck
    upperneck head
    lclavicle lhumerus
    lhumerus lradius
    lradius lwrist
    lwrist lhand lthumb
    lhand lfingers
    rclavicle rhumerus
    rhumerus rradius
    rradius rwrist
    rwrist rhand rthumb
    rhand rfingers
  end

#!OML:ASF H:\Male1\Project 1\Capture day 1\Session 1\Male1.ASF
:FULLY-SPECIFIED
:DEGREES
68
root 12.823 15.0664 0.181129 -163.319 -87.8612 160.1
lowerback 5.86892 1.2529 -2.67706
upperback -0.32251 1.39553 -1.71891
thorax -3.64729 0.718064 -0.396687
lowerneck -29.265 1.72423 2.93336
upperneck 25.7624 -76.091 -21.1235
head 33.1894 -58.6268 -167.33
rclavicle 1.20513e-014 -4.05521e-014
rhumerus -49.9987 -27.4887 -17.5721
rradius 143.154
rwrist -35.0953
rhand -25.8974 11.3117
rfingers 7.12502
rthumb 0.644801 -18.6671
lclavicle 1.20513e-014 -4.05521e-014
lhumerus -26.9685 32.4478 2.6372
lradius 143.908
lwrist 45.0354
lhand 10.1095 13.7995
lfingers 7.12502
lthumb 35.2302 40.3015
rfemur -6.25802 13.8288 24.8748
rtibia 37.3003
rfoot -40.1224 -26.281
rtoes -16.4678
lfemur -6.88753 -18.404 -24.754
ltibia 37.7493
lfoot -30.0687 24.3564
ltoes -8.6199
69
root 12.8231 15.0667 0.182107 -161.219 -87.8469 157.951
lowerback 5.67534 1.20123 -2.65578
upperback -0.33032 1.33464 -1.75239
thorax -3.54431 0.686462 -0.433255
lowerneck -28.2568 2.49969 1.91983
upperneck 22.199 -74.9241 -17.498
head 34.0642 -55.8502 -169.376
rclavicle -2.54693e-015 -3.97569e-015
rhumerus -48.1341 -27.8008 -17.0728
rradius 144.036
rwrist -33.3823
rhand -26.18 12.7261
rfingers 7.12502
rthumb 0.371874 -17.2533
lclavicle -2.54693e-015 -3.97569e-015
lhumerus -24.1868 33.1858 2.34096
lradius 143.978
lwrist 42.9856
lhand 10.6896 11.0738
lfingers 7.12502
lthumb 35.7801 37.444
rfemur -6.22217 13.7679 24.7783
rtibia 37.3217
rfoot -40.0526 -26.2741
rtoes -16.5051
lfemur -6.82291 -18.4147 -24.8729
ltibia 37.7458
lfoot -29.9736 24.4
ltoes -8.80429
70
root 12.826 15.0659 0.186258 -159.963 -87.7854 156.667
lowerback 5.63719 1.18 -2.46522
upperback -0.451872 1.31252 -1.87332
thorax -3.64114 0.671794 -0.663923
lowerneck -27.1715 3.30904 1.06294
upperneck 17.7082 -73.0494 -13.0427
head 34.5331 -52.5317 -171.31
rclavicle 1.55052e-014 6.36111e-015
rhumerus -46.537 -28.1954 -16.0594
rradius 144.882
rwrist -32.4413
rhand -26.1344 13.8301
rfingers 7.12502
rthumb 0.415947 -16.1492
lclavicle 1.55052e-014 6.36111e-015
lhumerus -21.3799 33.4514 2.254
lradius 143.821
lwrist 40.9528
lhand 9.97749 8.41695
lfingers 7.12502
lthumb 35.105 34.9484
rfemur -6.25672 13.7345 24.6778
rtibia 37.4188
rfoot -39.9727 -26.2874
rtoes -16.674
lfemur -6.75261 -18.3783 -24.9715
ltibia 37.6749
lfoot -29.88 24.4749
ltoes -8.97356
71
root 12.8294 15.0631 0.193935 -154.585 -87.6826 151.315
lowerback 5.57593 1.12013 -2.42659
upperback -0.580203 1.22825 -1.99656
thorax -3.73552 0.628525 -0.806167
lowerneck -26.1319 4.21243 0.167718
upperneck 14.8472 -71.1306 -10.2155
head 34.8416 -49.4849 -172.971
rclavicle -1.46604e-015 1.43125e-014
rhumerus -44.7346 -28.6738 -14.9118
rradius 145.638
rwrist -32.523
rhand -25.7622 14.8965
rfingers 7.12502
rthumb 0.775458 -15.0818
lclavicle -1.46604e-015 1.43125e-014
lhumerus -19.0479 33.5023 2.07669
lradius 143.567
lwrist 39.5768
lhand 8.76122 6.51715
lfingers 7.12502
lthumb 33.9505 33.3119
rfemur -6.35912 13.5925 24.3413
rtibia 37.5356
rfoot -39.894 -26.1798
rtoes -16.8987
lfemur -6.74709 -18.3436 -25.2485
ltibia 37.5819
lfoot -29.7042 24.6016
ltoes -9.37227
72
root 12.8316 15.0611 0.201341 -149.35 -87.4742 146.088
lowerback 5.3743 1.05266 -2.57815
upperback -0.611139 1.13439 -2.00988
thorax -3.65641 0.584341 -0.723054
lowerneck -25.2156 5.0258 -0.785096
upperneck 13.2534 -69.5046 -8.72375
head 35.1407 -47.2502 -174.248
rclavicle 1.39149e-015 -3.18055e-015
rhumerus -42.5327 -28.9432 -14.0946
rradius 146.239
rwrist -33.1228
rhand -25.8876 16.0864
rfingers 7.12502
rthumb 0.654328 -13.8924
lclavicle 1.39149e-015 -3.18055e-015
lhumerus -17.2618 33.5976 1.8916
lradius 143.19
lwrist 38.5816
lhand 7.69915 5.02518
lfingers 7.12502
lthumb 32.9409 32.0378
rfemur -6.43549 13.5141 23.9503
rtibia 37.6379
rfoot -39.937 -25.969
rtoes -17.0116
lfemur -6.71801 -18.293 -25.5967
ltibia 37.4958
lfoot -29.6336 24.6385
ltoes -9.44385
73
root 12.8321 15.0609 0.206486 -152.298 -87.2855 148.963
lowerback 5.22087 1.02273 -2.51229
upperback -0.607846 1.11194 -1.89131
thorax -3.56722 0.573614 -0.632445
lowerneck -24.4923 5.69706 -1.64033
upperneck 16.6384 -70.4185 -11.8203
head 36.1405 -48.2154 -174.979
rclavicle 7.55382e-015 1.59028e-015
rhumerus -40.3117 -29.124 -13.3002
rradius 146.587
rwrist -33.3546
rhand -26.4223 17.1737
rfingers 7.12502
rthumb 0.137872 -12.806
lclavicle 7.55382e-015 1.59028e-015
lhumerus -15.7146 33.6492 1.81542
lradius 142.513
lwrist 37.9098
lhand 6.7359 3.01604
lfingers 7.12502
lthumb 32.0243 30.2171
rfemur -6.41238 13.6629 23.9744
rtibia 37.7191
rfoot -39.9346 -25.942
rtoes -17.1457
lfemur -6.57311 -18.2087 -25.6363
ltibia 37.4236
lfoot -29.7163 24.6894
ltoes -9.30868
74
root 12.8336 15.0616 0.212515 -157.092 -87.1072 153.68
lowerback 5.23585 0.966814 -2.27478
upperback -0.633769 1.05719 -1.80046
thorax -3.599 0.544008 -0.66781
lowerneck -23.877 6.29754 -2.22917
upperneck 15.8351 -69.4422 -11.1009
head 36.4303 -47.2783 -175.82
rclavicle -8.87077e-015 4.37326e-015
rhumerus -38.1245 -29.5366 -12.3845
rradius 146.68
rwrist -33.3309
rhand -26.7661 17.949
rfingers 7.12502
rthumb -0.194182 -12.0307
lclavicle -8.87077e-015 4.37326e-015
lhumerus -14.4376 33.6005 1.64732
lradius 141.486
lwrist 37.4837
lhand 5.46102 2.74202
lfingers 7.12502
lthumb 30.8096 30.1796
rfemur -6.38138 13.8072 24.1096
rtibia 37.7659
rfoot -39.8073 -25.9832
rtoes -17.2707
lfemur -6.43649 -18.1221 -25.5686
ltibia 37.3842
lfoot -29.7756 24.8119
ltoes -9.38126
75
root 12.8354 15.0603 0.221484 -157.179 -86.9014 153.728
lowerback 5.21976 0.89049 -2.15535
upperback -0.665102 0.96211 -1.8263
thorax -3.61924 0.494401 -0.753572
lowerneck -23.3323 6.85197 -2.60561
upperneck 15.1145 -68.4713 -10.452
head 36.6228 -46.5566 -176.559
rclavicle -4.72114e-016 3.57812e-015
rhumerus -36.0862 -30.0739 -11.2958
rradius 146.636
rwrist -33.5588
rhand -27.3855 18.7924
rfingers 7.12502
rthumb -0.792444 -11.1858
lclavicle -4.72114e-016 3.57812e-015
lhumerus -13.5476 33.2783 1.299
lradius 140.165
lwrist 36.9839
lhand 3.1433 1.52595
lfingers 7.12502
lthumb 28.5975 29.3582
rfemur -6.3818 13.7645 23.9441
rtibia 37.7741
rfoot -39.6382 -25.8455
rtoes -17.4463
lfemur -6.37578 -18.043 -25.7221
ltibia 37.385
lfoot -29.8284 24.8902
ltoes -9.33099
76
root 12.8401 15.0583 0.230944 -158.855 -86.6992 155.351
lowerback 5.2347 0.837354 -1.96374
upperback -0.6953 0.903758 -1.81502
thorax -3.65568 0.462311 -0.845102
lowerneck -22.8386 7.31111 -2.88134
upperneck 14.802 -67.7642 -10.2034
head 36.8526 -46.2853 -177.174
rclavicle -5.04416e-015 3.10104e-014
rhumerus -34.2168 -30.5131 -10.0341
rradius 146.448
rwrist -34.0198
rhand -28.6191 19.7346
rfingers 7.12502
rthumb -1.9838 -10.2359
lclavicle -5.04416e-015 3.10104e-014
lhumerus -12.9439 32.6952 0.955692
lradius 138.469
lwrist 36.0351
lhand -0.107806 0.00164953
lfingers 7.12502
lthumb 25.4871 28.3172
rfemur -6.37389 13.7089 23.8718
rtibia 37.7501
rfoot -39.295 -25.8099
rtoes -18.0658
lfemur -6.33196 -17.8891 -25.7677
ltibia 37.4164
lfoot -29.9194 24.9118
ltoes -9.05858
77
root 12.8467 15.0589 0.238887 -162.986 -86.4805 159.413
lowerback 5.31282 0.800314 -1.65417
upperback -0.71375 0.876754 -1.74007
thorax -3.71489 0.444494 -0.940571
lowerneck -22.4545 7.72722 -3.08668
upperneck 14.4991 -67.0692 -9.9845
head 37.0811 -46.2385 -177.77
rclavicle 1.14301e-014 4.37326e-015
rhumerus -32.3973 -30.8707 -8.79548
rradius 146.04
rwrist -34.6161
rhand -29.874 20.4413
rfingers 7.12502
rthumb -3.19582 -9.51445
lclavicle 1.14301e-014 4.37326e-015
lhumerus -12.4548 32.0809 0.735205
lradius 136.316
lwrist 34.7424
lhand -3.31261 -1.45273
lfingers 7.12502
lthumb 22.4139 27.2668
rfemur -6.37931 13.885 24.0218
rtibia 37.7684
rfoot -39.0849 -25.9183
rtoes -18.4592
lfemur -6.26869 -17.6717 -25.6324
ltibia 37.4063
lfoot -29.9759 24.9176
ltoes -8.76195
78
root 12.8493 15.0597 0.244585 -167.308 -86.2323 163.663
lowerback 5.29151 0.810024 -1.28437
upperback -0.72045 0.918135 -1.69426
thorax -3.70421 0.458688 -1.10389
lowerneck -22.0451 8.03835 -3.14672
upperneck 14.5831 -66.7063 -10.118
head 37.3913 -46.6502 -178.307
rclavicle 7.67806e-015 5.56597e-015
rhumerus -30.8836 -31.2149 -7.45888
rradius 145.422
rwrist -35.4002
rhand -30.6418 20.9179
rfingers 7.12502
rthumb -3.93723 -9.0255
lclavicle 7.67806e-015 5.56597e-015
lhumerus -11.9998 31.5439 0.525648
lradius 133.782
lwrist 33.6168
lhand -5.8528 -2.53789
lfingers 7.12502
lthumb 19.9739 26.4556
rfemur -6.33761 14.2496 24.2661
rtibia 37.7755
rfoot -39.1083 -25.988
rtoes -18.3772
lfemur -6.17498 -17.5689 -25.4858
ltibia 37.4
lfoot -30.0371 25.0495
ltoes -8.67746
79
root 12.8512 15.0594 0.256114 -162.886 -86.0908 159.292
lowerback 5.13681 0.70749 -1.3353
upperback -0.669246 0.77576 -1.83589
thorax -3.56423 0.386362 -1.20649
lowerneck -21.9171 8.35428 -3.10004
upperneck 14.1088 -66.1033 -9.69306
head 37.5377 -46.7221 -178.853
rclavicle 5.29264e-015 -9.14409e-015
rhumerus -29.2862 -31.7383 -6.33558
rradius 144.559
rwrist -36.2168
rhand -30.8932 21.5455
rfingers 7.12502
rthumb -4.18001 -8.39324
lclavicle 5.29264e-015 -9.14409e-015
lhumerus -11.8434 31.2141 0.0696273
lradius 130.871
lwrist 32.6058
lhand -7.83755 -3.20976
lfingers 7.12502
lthumb 18.0651 25.9713
rfemur -6.43844 14.007 23.7693
rtibia 37.7991
rfoot -38.9403 -25.7439
rtoes -18.6626
lfemur -6.19534 -17.5971 -25.9014
ltibia 37.3772
lfoot -30.0504 25.1317
ltoes -8.67248
80
root 12.8551 15.0601 0.26061 -163.396 -85.9425 159.778
lowerback 5.16203 0.652492 -1.15971
upperback -0.686661 0.71024 -1.8949
thorax -3.59421 0.349571 -1.36119
lowerneck -21.6506 8.68507 -3.01452
upperneck 13.6068 -65.336 -9.23565
head 37.5673 -46.6196 -179.335
rclavicle -7.95139e-016 1.19271e-015
rhumerus -27.8483 -32.1353 -5.25342
rradius 143.483
rwrist -37.0112
rhand -32.1281 21.5766
rfingers 7.12502
rthumb -5.37242 -8.33528
lclavicle -7.95139e-016 1.19271e-015
lhumerus -11.6679 30.6228 -0.299709
lradius 127.506
lwrist 31.5628
lhand -9.78843 -3.59892
lfingers 7.12502
lthumb 16.1874 25.7452
rfemur -6.44157 14.0548 23.7301
rtibia 37.7996
rfoot -38.8157 -25.7283
rtoes -18.8726
lfemur -6.15307 -17.5142 -25.948
ltibia 37.3798
lfoot -30.1806 25.148
ltoes -8.40823
81
root 12.8604 15.0597 0.262204 -167.4 -85.7464 163.708
lowerback 5.2362 0.62684 -0.82939
upperback -0.679451 0.69857 -1.86157
thorax -3.62496 0.338072 -1.5123
lowerneck -21.3362 8.97209 -2.99863
upperneck 13.3853 -64.7806 -9.03385
head 37.5561 -46.4294 -179.59
rclavicle -1.44119e-014 5.56597e-015
rhumerus -26.4713 -32.4903 -4.29617
rradius 142.157
rwrist -37.8529
rhand -32.5147 21.7613
rfingers 7.12502
rthumb -5.74567 -8.14085
lclavicle -1.44119e-014 5.56597e-015
lhumerus -11.5405 30.0267 -0.562297
lradius 123.74
lwrist 30.5976
lhand -11.7452 -3.89324
lfingers 7.12502
lthumb 14.3025 25.5942
rfemur -6.40899 14.3409 24.0191
rtibia 37.8222
rfoot -38.7348 -25.849
rtoes -18.8971
lfemur -6.07117 -17.3643 -25.7232
ltibia 37.3704
lfoot -30.3592 25.1645
ltoes -8.11288
82
root 12.8654 15.0576 0.265587 -170.06 -85.5058 166.312
lowerback 5.22106 0.570961 -0.61771
upperback -0.627704 0.643032 -1.79206
thorax -3.56229 0.307773 -1.55402
lowerneck -21.2114 9.19605 -2.93682
upperneck 13.4401 -64.6132 -9.11731
head 37.7935 -46.8934 -179.923
rclavicle -1.03368e-014 1.66979e-014
rhumerus -24.9455 -32.879 -3.52577
rradius 140.453
rwrist -38.6696
rhand -32.7856 22.2514
rfingers 7.12502
rthumb -6.0072 -7.64339
lclavicle -1.03368e-014 1.66979e-014
lhumerus -11.6651 29.439 -0.9286
lradius 119.685
lwrist 29.8656
lhand -13.7076 -4.1537
lfingers 7.12502
lthumb 12.411 25.4578
rfemur -6.39184 14.6419 24.201
rtibia 37.8299
rfoot -38.7242 -25.8822
rtoes -18.7509
lfemur -6.00659 -17.2296 -25.5956
ltibia 37.3811
lfoot -30.5469 25.1358
ltoes -7.69143
